<svg xmlns="http://www.w3.org/2000/svg" xmlns:xlink="http://www.w3.org/1999/xlink" version="1.1" x="0px" y="0px" viewBox="0 0 10 12.5" enable-background="new 0 0 10 10" xml:space="preserve"><g><path fill="#825a2c" d="M8.272,6.641C8.233,6.59,8.196,6.533,8.155,6.475c-0.039-0.059-0.087-0.12-0.116-0.192   C7.974,6.139,7.887,5.986,7.846,5.81C7.82,5.723,7.791,5.634,7.771,5.541C7.755,5.448,7.742,5.352,7.729,5.255   C7.714,5.158,7.714,5.06,7.711,4.959c-0.004-0.099-0.005-0.199,0-0.3c0.009-0.198,0.015-0.399,0.023-0.6   c0.002-0.198,0.014-0.397,0.005-0.589c0-0.194-0.025-0.378-0.049-0.558c-0.02-0.089-0.04-0.175-0.06-0.259   C7.616,2.567,7.573,2.493,7.549,2.414c-0.047-0.161-0.141-0.29-0.21-0.418C7.309,1.928,7.26,1.878,7.218,1.827   C7.176,1.774,7.136,1.726,7.099,1.679c-0.03-0.044-0.066-0.08-0.101-0.113c-0.963,0.402-1.482,1.691-1.176,3.04   C6.15,6.051,7.304,7.023,8.418,6.812C8.368,6.765,8.316,6.711,8.272,6.641z"/><path fill="#825a2c" d="M9.918,3.675C9.583,2.204,8.396,1.221,7.266,1.478C7.204,1.492,7.144,1.51,7.087,1.531   C7.114,1.554,7.14,1.578,7.166,1.608C7.209,1.653,7.256,1.7,7.306,1.75C7.354,1.801,7.41,1.852,7.449,1.917   c0.085,0.128,0.197,0.258,0.264,0.425c0.035,0.081,0.086,0.161,0.109,0.252C7.85,2.683,7.877,2.775,7.905,2.868   C7.944,3.056,7.986,3.255,8,3.455C8.023,3.656,8.025,3.858,8.036,4.06c0.008,0.199,0.015,0.399,0.029,0.591   C8.07,4.749,8.082,4.843,8.092,4.937C8.104,5.029,8.104,5.122,8.121,5.21c0.011,0.088,0.024,0.176,0.032,0.262   c0.013,0.085,0.033,0.165,0.048,0.245C8.223,5.88,8.282,6.022,8.318,6.16C8.355,6.3,8.421,6.414,8.462,6.527   c0.033,0.099,0.082,0.174,0.12,0.244C9.645,6.451,10.242,5.097,9.918,3.675z"/><path fill="#825a2c" d="M2.011,4.144c0.115,0.001,0.244-0.012,0.375,0.021C2.521,4.18,2.654,4.225,2.792,4.276   c0.13,0.061,0.271,0.121,0.395,0.204c0.129,0.077,0.249,0.165,0.372,0.249C3.677,4.817,3.794,4.905,3.91,4.987   c0.117,0.081,0.228,0.164,0.342,0.231C4.31,5.252,4.366,5.285,4.421,5.319C4.477,5.349,4.534,5.374,4.588,5.4   c0.108,0.058,0.219,0.085,0.319,0.125c0.101,0.037,0.199,0.046,0.285,0.07C5.248,5.61,5.299,5.616,5.346,5.62   c0-0.001,0.001-0.003,0.002-0.004C5.684,4.832,5.13,3.841,4.109,3.404S1.99,3.249,1.653,4.033c-0.026,0.062-0.045,0.126-0.061,0.19   C1.624,4.21,1.659,4.199,1.7,4.193C1.791,4.18,1.896,4.145,2.011,4.144z"/><path fill="#825a2c" d="M4.871,5.685C4.76,5.661,4.633,5.649,4.511,5.598C4.449,5.576,4.383,5.555,4.319,5.529   C4.257,5.5,4.194,5.469,4.129,5.438C4.003,5.371,3.875,5.297,3.754,5.213C3.631,5.13,3.51,5.045,3.391,4.958   C3.273,4.873,3.157,4.785,3.04,4.711c-0.117-0.08-0.235-0.145-0.35-0.207C2.571,4.454,2.457,4.397,2.34,4.371   C2.228,4.33,2.114,4.326,2.008,4.308c-0.104-0.015-0.2-0.003-0.288-0.008c-0.053-0.003-0.102,0.003-0.147,0.01   C1.528,4.578,1.571,4.856,1.69,5.124c0.034,0,0.067,0.001,0.101,0.003c0.486,0.023,0.937,0.192,1.27,0.474   c0.274,0.233,0.44,0.521,0.487,0.827C4.31,6.532,5.013,6.26,5.306,5.7c-0.038,0.003-0.08,0.006-0.125,0.002   C5.091,5.697,4.983,5.708,4.871,5.685z"/><path fill="#825a2c" d="M3.303,6.726C3.228,6.748,3.145,6.788,3.048,6.804C2.951,6.817,2.845,6.844,2.732,6.84   C2.676,6.841,2.617,6.844,2.558,6.843c-0.059-0.006-0.119-0.012-0.18-0.018C2.257,6.811,2.132,6.788,2.009,6.758   c-0.122-0.03-0.245-0.063-0.367-0.097c-0.12-0.032-0.239-0.069-0.356-0.094C1.169,6.539,1.055,6.521,0.942,6.506   c-0.11-0.005-0.218-0.017-0.32-0.002c-0.103,0.001-0.196,0.03-0.286,0.047C0.248,6.572,0.175,6.611,0.103,6.633   c-0.034,0.011-0.064,0.024-0.092,0.04C0.097,7.32,0.789,7.85,1.657,7.893c0.037,0.002,0.074,0.003,0.11,0.003   c0.896,0,1.632-0.534,1.674-1.231C3.401,6.687,3.357,6.711,3.303,6.726z"/><path fill="#825a2c" d="M1.786,5.246C1.749,5.243,1.712,5.243,1.675,5.243c-0.901,0-1.641,0.54-1.674,1.242   c-0.002,0.036,0,0.071,0.002,0.107C0.02,6.58,0.034,6.566,0.055,6.556C0.124,6.518,0.198,6.458,0.29,6.424   C0.383,6.39,0.482,6.341,0.597,6.328C0.71,6.3,0.831,6.297,0.956,6.297C1.08,6.306,1.209,6.312,1.334,6.342   C1.46,6.364,1.583,6.4,1.707,6.431c0.121,0.034,0.241,0.068,0.359,0.103c0.119,0.03,0.232,0.063,0.345,0.085   c0.056,0.01,0.111,0.019,0.165,0.028c0.054,0.008,0.107,0.011,0.16,0.015C2.84,6.677,2.938,6.665,3.029,6.667   c0.092-0.002,0.174-0.023,0.25-0.03c0.064-0.005,0.116-0.021,0.163-0.034C3.441,5.894,2.714,5.29,1.786,5.246z"/></g><text x="0" y="25" fill="#825a2c" font-size="5px" font-weight="bold" font-family="'Helvetica Neue', Helvetica, Arial-Unicode, Arial, Sans-serif">Created by Florent B</text><text x="0" y="30" fill="#825a2c" font-size="5px" font-weight="bold" font-family="'Helvetica Neue', Helvetica, Arial-Unicode, Arial, Sans-serif">from the Noun Project</text></svg>
