<svg xmlns="http://www.w3.org/2000/svg" viewBox="0 0 88.95 87.84"><defs><style>.cls-1{fill:#81ba27;}</style></defs><title>farmer</title><g id="Layer_2" data-name="Layer 2"><g id="Layer_1-2" data-name="Layer 1"><path class="cls-1" d="M88.94,86.12c-.84-6.08-3.2-16.44-5.2-18.2-.12-.11-26.19-11.86-26.19-11.86a32.76,32.76,0,0,0,6-11.32c2.26-1.51,3.19-6.45,2.54-9.85L85.54,33a1.51,1.51,0,0,0,.21-3L66.6,25.35c-.12-3.44-1-13.22-7.27-19.62C55.62,1.93,50.7,0,44.69,0S33.81,1.93,30.21,5.74c-6,6.38-6.67,16.09-6.69,19.59L2.41,30a1.51,1.51,0,0,0,.18,3l21.16,2c-.53,3.66.66,8.45,2.61,9.76a34,34,0,0,0,5.53,11.52S5.37,67.79,5.24,67.92C3.38,69.74,1,81.2,0,86a1.5,1.5,0,0,0,1.48,1.8H87.44a1.51,1.51,0,0,0,1.14-.52A1.49,1.49,0,0,0,88.94,86.12ZM68.37,76.31h3.85v9.24H17.38V76.31H21.6a.86.86,0,0,0,.85-.86V63.66l5.91-2.55V75.45a.85.85,0,0,0,.85.86H60.75a.86.86,0,0,0,.86-.86V61.1l5.9,2.54V75.45A.85.85,0,0,0,68.37,76.31ZM35.15,58.14A14.09,14.09,0,0,0,44.74,62c3.23,0,6.48-1.42,9.49-4.12l2,.89a7.87,7.87,0,0,1-7.81,6.39h-7.6c-4,0-7.15-2.57-7.68-6.12C33.13,59.05,35.08,58.19,35.15,58.14Zm-6-14.76a1.52,1.52,0,0,0-1.05-1.1c-.08,0-.41-.29-.74-1.13-.84-2.1-.06-6.6.05-6.86,6.65.38,28.43.37,35,0,.13.26,1,4.46.23,6.64-.35,1-.7,1.32-.8,1.35a1.52,1.52,0,0,0-1.06,1.12C60,46.55,54.2,60.3,44.74,60.3,34.53,60.3,29.54,45.15,29.12,43.38ZM25.77,77.56a2.91,2.91,0,1,0,2.91,2.91A2.91,2.91,0,0,0,25.77,77.56Zm38.79,0a2.91,2.91,0,1,0,2.91,2.91A2.91,2.91,0,0,0,64.56,77.56Z"/></g></g></svg>