<svg xmlns="http://www.w3.org/2000/svg" viewBox="0 0 459.5 102.04"><defs><style>.cls-1{fill:#fff;}</style></defs><title>makuna-white</title><g id="Layer_2" data-name="Layer 2"><g id="Layer_1-2" data-name="Layer 1"><polygon class="cls-1" points="51.24 15.08 36.26 62.8 20.93 15.08 14.26 15.08 0 85.95 12.13 85.95 19.77 47.76 34.03 86.87 38.53 86.87 52.79 47.76 60.13 85.95 72.32 85.95 57.86 15.08 51.24 15.08"/><path class="cls-1" d="M119,70.05V59q0-15-5.51-20.43T96.15,33.16a33.9,33.9,0,0,0-14.84,3l2.61,9.38a25.52,25.52,0,0,1,11.41-2.27q11.55,0,11.55,9.13a21.29,21.29,0,0,0-5-.72q-12.42,0-19.16,5.07T75.94,70.82q0,7.68,4.79,11.87t13.15,4.18a21.74,21.74,0,0,0,8.53-1.72,11.68,11.68,0,0,0,5.73-4.42,9.77,9.77,0,0,0,2.8,4.21,6.75,6.75,0,0,0,4.69,1.93,13.17,13.17,0,0,0,4.2-.61,6.48,6.48,0,0,0,3.34-3.21Q119,80.4,119,70.05Zm-12-3.68q0,10.88-10.88,10.88-8.07,0-8.07-7,0-9.37,14.31-9.38a25.71,25.71,0,0,1,4.64.63Z"/><polygon class="cls-1" points="175.96 34.13 161.41 34.13 144.15 54 144.15 11.94 132.06 14.84 132.06 85.9 144.15 85.9 144.15 68.6 149.95 62.46 165.18 85.9 179.53 85.9 158.46 53.76 175.96 34.13"/><path class="cls-1" d="M219.66,69.71A10.86,10.86,0,0,1,215,74.64a14.54,14.54,0,0,1-7.64,2.13q-8.94,0-8.94-10V34.13H186.3v33.6q0,19.14,18,19.14a25.63,25.63,0,0,0,8.27-1.55,21.83,21.83,0,0,0,7.06-3.72V86h12.08V34.13H219.66Z"/><path class="cls-1" d="M270.27,33.16q-9.63,0-14.55,5.8l-2.23-4.83h-8.7V85.9h12.09V48.49a13.06,13.06,0,0,1,4.71-3.72,12.83,12.83,0,0,1,5.68-1.5q5.76,0,8.29,3T278.1,56V85.9h12.08V54.14q0-9.9-5.34-15.44T270.27,33.16Z"/><path class="cls-1" d="M342.92,70.05V59c8-.36,16.28,2,23.29,4.51,70.49,25.65,63.86-37.36,56.85-22.18-1.9,5.23-1.54,8.31-5.22,14.36-14.49,15.43-34.78,2.13-54.36-5-9-2.82-15.68-3.23-21.48-2.33-.89-4.38-2.41-7.64-4.59-9.77q-5.51-5.38-17.35-5.39a33.93,33.93,0,0,0-14.84,3l2.61,9.38a25.52,25.52,0,0,1,11.41-2.27q11.06,0,11.52,8.39L330,52c0,.1,0,.19,0,.28a20.14,20.14,0,0,0-4.28-.55q-12.42,0-19.16,5.07t-6.75,14.07q0,7.68,4.79,11.87t13.15,4.18a21.74,21.74,0,0,0,8.53-1.72,11.68,11.68,0,0,0,5.73-4.42,9.77,9.77,0,0,0,2.8,4.21,6.75,6.75,0,0,0,4.69,1.93,13.17,13.17,0,0,0,4.2-.61,6.48,6.48,0,0,0,3.34-3.21Q342.93,80.4,342.92,70.05Zm-12-3.68q0,10.88-10.88,10.88-8.07,0-8.07-7,0-9.37,14.31-9.38a25.71,25.71,0,0,1,4.64.63Z"/><path class="cls-1" d="M366.38,65.68c-6.13,11.41-1.57,25,9.47,29.1C383.15,84.19,377.42,69.82,366.38,65.68Z"/><path class="cls-1" d="M433.15,42c11.75,4.27,23.38-3.32,26.35-15.54C448.58,24,436.12,29.79,433.15,42Z"/><path class="cls-1" d="M439.57,0c-11.52,3.2-16.27,16.25-11.28,26.94C439.8,23.73,444.55,10.68,439.57,0Z"/><path class="cls-1" d="M418.79,36.78a19,19,0,0,0-12.45-26.7C402.06,21.83,407.87,34.29,418.79,36.78Z"/><path class="cls-1" d="M431,60.46c9.5,6.42,23.29,1.07,28.4-8.91C448.6,44.66,434.81,50,431,60.46Z"/><path class="cls-1" d="M416.18,52.09a21.59,21.59,0,0,0-21.84-21.25C393.15,42.24,403.83,53.51,416.18,52.09Z"/><path class="cls-1" d="M422,69c5,10.7,18.54,14.15,28.4,7.38C445.38,65.69,431.84,62.24,422,69Z"/><path class="cls-1" d="M409.5,74.83c-1.67,12.72,8.19,22.23,20.55,20.8C431.24,84.23,421.38,74.72,409.5,74.83Z"/><path class="cls-1" d="M382.72,22.18c-12,4.5-18.05,17.08-13.06,27.76C381.64,45.44,387.7,32.86,382.72,22.18Z"/><path class="cls-1" d="M392.74,76.14A19.7,19.7,0,0,0,407,102,19.7,19.7,0,0,0,392.74,76.14Z"/></g></g></svg>